<svg id="svg" version="1.1" width="400" height="400" viewBox="0 0 400 400" xmlns="http://www.w3.org/2000/svg" xmlns:xlink="http://www.w3.org/1999/xlink" ><g id="svgg"><path id="path0" d="M258.800 30.361 C 258.470 30.534,257.797 30.884,257.305 31.138 C 256.813 31.392,255.688 31.600,254.805 31.600 C 253.922 31.600,253.200 31.780,253.200 32.000 C 253.200 32.220,252.480 32.400,251.600 32.400 C 250.720 32.400,250.000 32.580,250.000 32.800 C 250.000 33.020,249.471 33.200,248.824 33.200 C 248.177 33.200,247.536 33.380,247.400 33.600 C 247.264 33.820,246.713 34.000,246.176 34.000 C 245.639 34.000,245.200 34.180,245.200 34.400 C 245.200 34.620,244.761 34.800,244.224 34.800 C 243.687 34.800,243.136 34.980,243.000 35.200 C 242.864 35.420,242.324 35.600,241.800 35.600 C 241.276 35.600,240.736 35.780,240.600 36.000 C 240.464 36.220,240.003 36.400,239.576 36.400 C 239.149 36.400,238.800 36.580,238.800 36.800 C 238.800 37.020,238.440 37.200,238.000 37.200 C 237.560 37.200,237.200 37.380,237.200 37.600 C 237.200 37.820,236.865 38.000,236.455 38.000 C 236.046 38.000,234.381 38.687,232.755 39.527 C 228.654 41.646,227.903 42.098,227.157 42.900 C 226.799 43.285,226.295 43.600,226.036 43.600 C 225.778 43.600,225.180 43.960,224.708 44.400 C 224.236 44.840,223.613 45.200,223.325 45.200 C 223.036 45.200,222.800 45.380,222.800 45.600 C 222.800 45.820,222.557 46.000,222.259 46.000 C 221.962 46.000,221.154 46.540,220.463 47.200 C 219.772 47.860,219.041 48.400,218.839 48.400 C 218.636 48.400,217.413 49.435,216.121 50.700 C 214.829 51.965,212.958 53.619,211.963 54.376 C 210.967 55.133,209.533 56.567,208.776 57.563 C 208.019 58.558,206.365 60.429,205.100 61.721 C 203.835 63.013,202.800 64.236,202.800 64.439 C 202.800 64.641,202.260 65.372,201.600 66.063 C 200.940 66.754,200.400 67.562,200.400 67.859 C 200.400 68.157,200.220 68.400,200.000 68.400 C 199.780 68.400,199.600 68.636,199.600 68.925 C 199.600 69.213,199.240 69.836,198.800 70.308 C 198.360 70.780,198.000 71.320,198.000 71.508 C 198.000 71.696,197.685 72.207,197.300 72.645 C 195.914 74.221,192.400 80.969,192.400 82.055 C 192.400 82.465,192.220 82.800,192.000 82.800 C 191.780 82.800,191.600 83.160,191.600 83.600 C 191.600 84.040,191.420 84.400,191.200 84.400 C 190.980 84.400,190.800 84.762,190.800 85.205 C 190.800 85.648,190.620 86.368,190.400 86.805 C 190.180 87.242,189.820 87.958,189.600 88.395 C 189.380 88.832,189.200 89.552,189.200 89.995 C 189.200 90.438,189.020 90.800,188.800 90.800 C 188.580 90.800,188.400 91.149,188.400 91.576 C 188.400 92.003,188.220 92.464,188.000 92.600 C 187.780 92.736,187.600 93.467,187.600 94.224 C 187.600 94.981,187.420 95.600,187.200 95.600 C 186.980 95.600,186.800 96.320,186.800 97.200 C 186.800 98.080,186.620 98.800,186.400 98.800 C 186.180 98.800,186.000 99.509,186.000 100.376 C 186.000 101.243,185.820 102.064,185.600 102.200 C 185.380 102.336,185.200 102.876,185.200 103.400 C 185.200 103.924,185.020 104.464,184.800 104.600 C 184.545 104.758,184.400 110.263,184.400 119.800 C 184.400 129.337,184.545 134.842,184.800 135.000 C 185.020 135.136,185.200 135.766,185.200 136.400 C 185.200 137.034,185.380 137.664,185.600 137.800 C 185.820 137.936,186.000 138.757,186.000 139.624 C 186.000 140.491,186.180 141.200,186.400 141.200 C 186.620 141.200,186.800 141.920,186.800 142.800 C 186.800 143.680,186.980 144.400,187.200 144.400 C 187.420 144.400,187.600 145.019,187.600 145.776 C 187.600 146.533,187.780 147.264,188.000 147.400 C 188.220 147.536,188.400 147.997,188.400 148.424 C 188.400 148.851,188.580 149.200,188.800 149.200 C 189.020 149.200,189.200 149.562,189.200 150.005 C 189.200 150.448,189.380 151.168,189.600 151.605 C 189.820 152.042,190.180 152.758,190.400 153.195 C 190.620 153.632,190.800 154.352,190.800 154.795 C 190.800 155.238,190.980 155.600,191.200 155.600 C 191.420 155.600,191.600 155.960,191.600 156.400 C 191.600 156.840,191.780 157.200,192.000 157.200 C 192.220 157.200,192.400 157.535,192.400 157.945 C 192.400 159.031,195.914 165.779,197.300 167.355 C 197.685 167.793,198.000 168.304,198.000 168.492 C 198.000 168.680,198.360 169.220,198.800 169.692 C 199.240 170.164,199.600 170.787,199.600 171.075 C 199.600 171.364,199.780 171.600,200.000 171.600 C 200.220 171.600,200.400 171.843,200.400 172.141 C 200.400 172.438,200.940 173.246,201.600 173.937 C 202.260 174.628,202.800 175.359,202.800 175.561 C 202.800 175.764,203.835 176.987,205.100 178.279 C 206.365 179.571,208.019 181.442,208.776 182.437 C 209.533 183.433,210.967 184.867,211.963 185.624 C 212.958 186.381,214.829 188.035,216.121 189.300 C 217.413 190.565,218.636 191.600,218.839 191.600 C 219.041 191.600,219.772 192.140,220.463 192.800 C 221.154 193.460,221.962 194.000,222.259 194.000 C 222.557 194.000,222.800 194.180,222.800 194.400 C 222.800 194.620,223.036 194.800,223.325 194.800 C 223.613 194.800,224.236 195.160,224.708 195.600 C 225.180 196.040,225.720 196.400,225.908 196.400 C 226.096 196.400,226.607 196.715,227.045 197.100 C 228.621 198.486,235.369 202.000,236.455 202.000 C 236.865 202.000,237.200 202.180,237.200 202.400 C 237.200 202.620,237.560 202.800,238.000 202.800 C 238.440 202.800,238.800 202.980,238.800 203.200 C 238.800 203.420,239.149 203.600,239.576 203.600 C 240.003 203.600,240.464 203.780,240.600 204.000 C 240.736 204.220,241.276 204.400,241.800 204.400 C 242.324 204.400,242.864 204.580,243.000 204.800 C 243.136 205.020,243.687 205.200,244.224 205.200 C 244.761 205.200,245.200 205.380,245.200 205.600 C 245.200 205.820,245.549 206.000,245.976 206.000 C 246.403 206.000,246.864 206.180,247.000 206.400 C 247.136 206.620,247.867 206.800,248.624 206.800 C 249.381 206.800,250.000 206.980,250.000 207.200 C 250.000 207.420,250.720 207.600,251.600 207.600 C 252.480 207.600,253.200 207.780,253.200 208.000 C 253.200 208.220,253.999 208.400,254.976 208.400 C 255.953 208.400,256.864 208.580,257.000 208.800 C 257.136 209.020,258.317 209.200,259.624 209.200 C 260.941 209.200,262.000 209.378,262.000 209.600 C 262.000 209.858,266.400 210.000,274.400 210.000 C 282.400 210.000,286.800 209.858,286.800 209.600 C 286.800 209.375,287.925 209.200,289.376 209.200 C 290.793 209.200,292.064 209.020,292.200 208.800 C 292.336 208.580,293.157 208.400,294.024 208.400 C 294.891 208.400,295.600 208.220,295.600 208.000 C 295.600 207.780,296.320 207.600,297.200 207.600 C 298.080 207.600,298.800 207.420,298.800 207.200 C 298.800 206.980,299.419 206.800,300.176 206.800 C 300.933 206.800,301.664 206.620,301.800 206.400 C 301.936 206.180,302.397 206.000,302.824 206.000 C 303.251 206.000,303.600 205.820,303.600 205.600 C 303.600 205.380,304.039 205.200,304.576 205.200 C 305.113 205.200,305.664 205.020,305.800 204.800 C 305.936 204.580,306.476 204.400,307.000 204.400 C 307.524 204.400,308.064 204.220,308.200 204.000 C 308.336 203.780,308.797 203.600,309.224 203.600 C 309.651 203.600,310.000 203.420,310.000 203.200 C 310.000 202.980,310.360 202.800,310.800 202.800 C 311.240 202.800,311.600 202.620,311.600 202.400 C 311.600 202.180,311.935 202.000,312.345 202.000 C 313.431 202.000,320.179 198.486,321.755 197.100 C 322.193 196.715,322.704 196.400,322.892 196.400 C 323.080 196.400,323.620 196.040,324.092 195.600 C 324.564 195.160,325.187 194.800,325.475 194.800 C 325.764 194.800,326.000 194.620,326.000 194.400 C 326.000 194.180,326.243 194.000,326.541 194.000 C 326.838 194.000,327.646 193.460,328.337 192.800 C 329.028 192.140,329.759 191.600,329.961 191.600 C 330.164 191.600,331.387 190.565,332.679 189.300 C 333.971 188.035,335.842 186.381,336.837 185.624 C 337.833 184.867,339.267 183.433,340.024 182.437 C 340.781 181.442,342.435 179.571,343.700 178.279 C 344.965 176.987,346.000 175.764,346.000 175.561 C 346.000 175.359,346.540 174.628,347.200 173.937 C 347.860 173.246,348.400 172.438,348.400 172.141 C 348.400 171.843,348.580 171.600,348.800 171.600 C 349.020 171.600,349.200 171.364,349.200 171.075 C 349.200 170.787,349.560 170.164,350.000 169.692 C 350.440 169.220,350.800 168.680,350.800 168.492 C 350.800 168.304,351.115 167.793,351.500 167.355 C 352.886 165.779,356.400 159.031,356.400 157.945 C 356.400 157.535,356.580 157.200,356.800 157.200 C 357.020 157.200,357.200 156.840,357.200 156.400 C 357.200 155.960,357.380 155.600,357.600 155.600 C 357.820 155.600,358.000 155.238,358.000 154.795 C 358.000 154.352,358.180 153.632,358.400 153.195 C 358.620 152.758,358.980 152.042,359.200 151.605 C 359.420 151.168,359.600 150.448,359.600 150.005 C 359.600 149.562,359.780 149.200,360.000 149.200 C 360.220 149.200,360.400 148.851,360.400 148.424 C 360.400 147.997,360.580 147.536,360.800 147.400 C 361.020 147.264,361.200 146.533,361.200 145.776 C 361.200 145.019,361.380 144.400,361.600 144.400 C 361.820 144.400,362.000 143.680,362.000 142.800 C 362.000 141.920,362.180 141.200,362.400 141.200 C 362.620 141.200,362.800 140.491,362.800 139.624 C 362.800 138.757,362.980 137.936,363.200 137.800 C 363.420 137.664,363.600 136.393,363.600 134.976 C 363.600 133.525,363.775 132.400,364.000 132.400 C 364.258 132.400,364.400 128.000,364.400 120.000 C 364.400 112.000,364.258 107.600,364.000 107.600 C 363.775 107.600,363.600 106.475,363.600 105.024 C 363.600 103.607,363.420 102.336,363.200 102.200 C 362.980 102.064,362.800 101.243,362.800 100.376 C 362.800 99.509,362.620 98.800,362.400 98.800 C 362.180 98.800,362.000 98.080,362.000 97.200 C 362.000 96.320,361.820 95.600,361.600 95.600 C 361.380 95.600,361.200 94.981,361.200 94.224 C 361.200 93.467,361.020 92.736,360.800 92.600 C 360.580 92.464,360.400 92.003,360.400 91.576 C 360.400 91.149,360.220 90.800,360.000 90.800 C 359.780 90.800,359.600 90.438,359.600 89.995 C 359.600 89.552,359.420 88.832,359.200 88.395 C 358.980 87.958,358.620 87.242,358.400 86.805 C 358.180 86.368,358.000 85.648,358.000 85.205 C 358.000 84.762,357.820 84.400,357.600 84.400 C 357.380 84.400,357.200 84.040,357.200 83.600 C 357.200 83.160,357.020 82.800,356.800 82.800 C 356.580 82.800,356.400 82.465,356.400 82.055 C 356.400 80.969,352.886 74.221,351.500 72.645 C 351.115 72.207,350.800 71.696,350.800 71.508 C 350.800 71.320,350.440 70.780,350.000 70.308 C 349.560 69.836,349.200 69.213,349.200 68.925 C 349.200 68.636,349.020 68.400,348.800 68.400 C 348.580 68.400,348.400 68.157,348.400 67.859 C 348.400 67.562,347.860 66.754,347.200 66.063 C 346.540 65.372,346.000 64.641,346.000 64.439 C 346.000 64.236,344.965 63.013,343.700 61.721 C 342.435 60.429,340.781 58.558,340.024 57.563 C 339.267 56.567,337.833 55.133,336.837 54.376 C 335.842 53.619,333.971 51.965,332.679 50.700 C 331.387 49.435,330.164 48.400,329.961 48.400 C 329.759 48.400,329.028 47.860,328.337 47.200 C 327.646 46.540,326.838 46.000,326.541 46.000 C 326.243 46.000,326.000 45.820,326.000 45.600 C 326.000 45.380,325.764 45.200,325.475 45.200 C 325.187 45.200,324.564 44.840,324.092 44.400 C 323.620 43.960,323.022 43.600,322.764 43.600 C 322.505 43.600,322.001 43.285,321.643 42.900 C 320.897 42.098,320.146 41.646,316.045 39.527 C 314.419 38.687,312.754 38.000,312.345 38.000 C 311.935 38.000,311.600 37.820,311.600 37.600 C 311.600 37.380,311.240 37.200,310.800 37.200 C 310.360 37.200,310.000 37.020,310.000 36.800 C 310.000 36.580,309.651 36.400,309.224 36.400 C 308.797 36.400,308.336 36.220,308.200 36.000 C 308.064 35.780,307.524 35.600,307.000 35.600 C 306.476 35.600,305.936 35.420,305.800 35.200 C 305.664 34.980,305.113 34.800,304.576 34.800 C 304.039 34.800,303.600 34.620,303.600 34.400 C 303.600 34.180,303.161 34.000,302.624 34.000 C 302.087 34.000,301.536 33.820,301.400 33.600 C 301.264 33.380,300.623 33.200,299.976 33.200 C 299.329 33.200,298.800 33.020,298.800 32.800 C 298.800 32.580,298.080 32.400,297.200 32.400 C 296.320 32.400,295.600 32.220,295.600 32.000 C 295.600 31.780,294.801 31.600,293.824 31.600 C 292.847 31.600,291.936 31.420,291.800 31.200 C 291.664 30.980,291.124 30.800,290.600 30.800 C 290.076 30.800,289.536 30.620,289.400 30.400 C 289.103 29.920,259.713 29.883,258.800 30.361 M283.781 33.991 C 287.457 34.377,288.275 34.528,294.800 36.012 C 301.807 37.606,309.732 40.633,315.536 43.931 C 317.151 44.849,318.552 45.600,318.651 45.600 C 318.937 45.600,325.564 50.193,328.200 52.217 C 331.970 55.113,338.966 62.217,342.364 66.600 C 345.343 70.443,348.800 75.354,348.800 75.742 C 348.800 75.845,349.551 77.249,350.469 78.864 C 354.589 86.113,357.083 93.278,359.643 105.219 C 361.161 112.302,361.161 127.698,359.643 134.781 C 357.083 146.722,354.589 153.887,350.469 161.136 C 349.551 162.751,348.800 164.155,348.800 164.258 C 348.800 164.608,345.455 169.396,342.554 173.200 C 339.123 177.698,331.493 185.282,327.000 188.659 C 323.613 191.204,318.970 194.400,318.658 194.400 C 318.555 194.400,317.151 195.151,315.536 196.069 C 308.146 200.269,299.688 203.178,288.200 205.469 C 282.999 206.507,265.801 206.507,260.600 205.469 C 249.112 203.178,240.654 200.269,233.264 196.069 C 231.649 195.151,230.245 194.400,230.142 194.400 C 228.950 194.400,218.655 186.330,213.868 181.642 C 209.089 176.961,200.000 165.568,200.000 164.258 C 200.000 164.155,199.249 162.751,198.331 161.136 C 194.211 153.887,191.717 146.722,189.157 134.781 C 187.639 127.698,187.639 112.302,189.157 105.219 C 191.717 93.278,194.211 86.113,198.331 78.864 C 199.249 77.249,200.000 75.845,200.000 75.742 C 200.000 74.432,209.089 63.039,213.868 58.358 C 218.655 53.670,228.950 45.600,230.142 45.600 C 230.245 45.600,231.649 44.849,233.264 43.931 C 240.540 39.796,247.475 37.384,259.724 34.731 C 264.629 33.668,277.072 33.285,283.781 33.991 M108.400 186.361 C 108.070 186.534,107.397 186.884,106.905 187.138 C 106.413 187.392,105.288 187.600,104.405 187.600 C 103.522 187.600,102.800 187.780,102.800 188.000 C 102.800 188.220,102.080 188.400,101.200 188.400 C 100.320 188.400,99.600 188.580,99.600 188.800 C 99.600 189.020,99.071 189.200,98.424 189.200 C 97.777 189.200,97.136 189.380,97.000 189.600 C 96.864 189.820,96.313 190.000,95.776 190.000 C 95.239 190.000,94.800 190.180,94.800 190.400 C 94.800 190.620,94.361 190.800,93.824 190.800 C 93.287 190.800,92.736 190.980,92.600 191.200 C 92.464 191.420,91.924 191.600,91.400 191.600 C 90.876 191.600,90.336 191.780,90.200 192.000 C 90.064 192.220,89.603 192.400,89.176 192.400 C 88.749 192.400,88.400 192.580,88.400 192.800 C 88.400 193.020,88.040 193.200,87.600 193.200 C 87.160 193.200,86.800 193.380,86.800 193.600 C 86.800 193.820,86.465 194.000,86.055 194.000 C 85.646 194.000,83.981 194.687,82.355 195.527 C 78.254 197.646,77.503 198.098,76.757 198.900 C 76.399 199.285,75.895 199.600,75.636 199.600 C 75.378 199.600,74.780 199.960,74.308 200.400 C 73.836 200.840,73.213 201.200,72.925 201.200 C 72.636 201.200,72.400 201.380,72.400 201.600 C 72.400 201.820,72.157 202.000,71.859 202.000 C 71.562 202.000,70.754 202.540,70.063 203.200 C 69.372 203.860,68.641 204.400,68.439 204.400 C 68.236 204.400,67.013 205.435,65.721 206.700 C 64.429 207.965,62.558 209.619,61.563 210.376 C 60.567 211.133,59.133 212.567,58.376 213.563 C 57.619 214.558,55.965 216.429,54.700 217.721 C 53.435 219.013,52.400 220.236,52.400 220.439 C 52.400 220.641,51.860 221.372,51.200 222.063 C 50.540 222.754,50.000 223.562,50.000 223.859 C 50.000 224.157,49.820 224.400,49.600 224.400 C 49.380 224.400,49.200 224.636,49.200 224.925 C 49.200 225.213,48.840 225.836,48.400 226.308 C 47.960 226.780,47.600 227.320,47.600 227.508 C 47.600 227.696,47.285 228.207,46.900 228.645 C 45.514 230.221,42.000 236.969,42.000 238.055 C 42.000 238.465,41.820 238.800,41.600 238.800 C 41.380 238.800,41.200 239.160,41.200 239.600 C 41.200 240.040,41.020 240.400,40.800 240.400 C 40.580 240.400,40.400 240.762,40.400 241.205 C 40.400 241.648,40.220 242.368,40.000 242.805 C 39.780 243.242,39.420 243.958,39.200 244.395 C 38.980 244.832,38.800 245.552,38.800 245.995 C 38.800 246.438,38.620 246.800,38.400 246.800 C 38.180 246.800,38.000 247.149,38.000 247.576 C 38.000 248.003,37.820 248.464,37.600 248.600 C 37.380 248.736,37.200 249.467,37.200 250.224 C 37.200 250.981,37.020 251.600,36.800 251.600 C 36.580 251.600,36.400 252.320,36.400 253.200 C 36.400 254.080,36.220 254.800,36.000 254.800 C 35.780 254.800,35.600 255.509,35.600 256.376 C 35.600 257.243,35.420 258.064,35.200 258.200 C 34.980 258.336,34.800 258.876,34.800 259.400 C 34.800 259.924,34.620 260.464,34.400 260.600 C 33.853 260.938,33.853 290.662,34.400 291.000 C 34.620 291.136,34.800 291.766,34.800 292.400 C 34.800 293.034,34.980 293.664,35.200 293.800 C 35.420 293.936,35.600 294.757,35.600 295.624 C 35.600 296.491,35.780 297.200,36.000 297.200 C 36.220 297.200,36.400 297.920,36.400 298.800 C 36.400 299.680,36.580 300.400,36.800 300.400 C 37.020 300.400,37.200 301.019,37.200 301.776 C 37.200 302.533,37.380 303.264,37.600 303.400 C 37.820 303.536,38.000 303.997,38.000 304.424 C 38.000 304.851,38.180 305.200,38.400 305.200 C 38.620 305.200,38.800 305.562,38.800 306.005 C 38.800 306.448,38.980 307.168,39.200 307.605 C 39.420 308.042,39.780 308.758,40.000 309.195 C 40.220 309.632,40.400 310.352,40.400 310.795 C 40.400 311.238,40.580 311.600,40.800 311.600 C 41.020 311.600,41.200 311.960,41.200 312.400 C 41.200 312.840,41.380 313.200,41.600 313.200 C 41.820 313.200,42.000 313.535,42.000 313.945 C 42.000 315.031,45.514 321.779,46.900 323.355 C 47.285 323.793,47.600 324.304,47.600 324.492 C 47.600 324.680,47.960 325.220,48.400 325.692 C 48.840 326.164,49.200 326.787,49.200 327.075 C 49.200 327.364,49.380 327.600,49.600 327.600 C 49.820 327.600,50.000 327.843,50.000 328.141 C 50.000 328.438,50.540 329.246,51.200 329.937 C 51.860 330.628,52.400 331.359,52.400 331.561 C 52.400 331.764,53.435 332.987,54.700 334.279 C 55.965 335.571,57.619 337.442,58.376 338.437 C 59.133 339.433,60.567 340.867,61.563 341.624 C 62.558 342.381,64.429 344.035,65.721 345.300 C 67.013 346.565,68.236 347.600,68.439 347.600 C 68.641 347.600,69.372 348.140,70.063 348.800 C 70.754 349.460,71.562 350.000,71.859 350.000 C 72.157 350.000,72.400 350.180,72.400 350.400 C 72.400 350.620,72.636 350.800,72.925 350.800 C 73.213 350.800,73.836 351.160,74.308 351.600 C 74.780 352.040,75.320 352.400,75.508 352.400 C 75.696 352.400,76.207 352.715,76.645 353.100 C 78.221 354.486,84.969 358.000,86.055 358.000 C 86.465 358.000,86.800 358.180,86.800 358.400 C 86.800 358.620,87.160 358.800,87.600 358.800 C 88.040 358.800,88.400 358.980,88.400 359.200 C 88.400 359.420,88.749 359.600,89.176 359.600 C 89.603 359.600,90.064 359.780,90.200 360.000 C 90.336 360.220,90.876 360.400,91.400 360.400 C 91.924 360.400,92.464 360.580,92.600 360.800 C 92.736 361.020,93.287 361.200,93.824 361.200 C 94.361 361.200,94.800 361.380,94.800 361.600 C 94.800 361.820,95.149 362.000,95.576 362.000 C 96.003 362.000,96.464 362.180,96.600 362.400 C 96.736 362.620,97.467 362.800,98.224 362.800 C 98.981 362.800,99.600 362.980,99.600 363.200 C 99.600 363.420,100.320 363.600,101.200 363.600 C 102.080 363.600,102.800 363.780,102.800 364.000 C 102.800 364.220,103.599 364.400,104.576 364.400 C 105.553 364.400,106.464 364.580,106.600 364.800 C 106.736 365.020,107.917 365.200,109.224 365.200 C 110.541 365.200,111.600 365.378,111.600 365.600 C 111.600 365.858,116.000 366.000,124.000 366.000 C 132.000 366.000,136.400 365.858,136.400 365.600 C 136.400 365.375,137.525 365.200,138.976 365.200 C 140.393 365.200,141.664 365.020,141.800 364.800 C 141.936 364.580,142.757 364.400,143.624 364.400 C 144.491 364.400,145.200 364.220,145.200 364.000 C 145.200 363.780,145.920 363.600,146.800 363.600 C 147.680 363.600,148.400 363.420,148.400 363.200 C 148.400 362.980,149.019 362.800,149.776 362.800 C 150.533 362.800,151.264 362.620,151.400 362.400 C 151.536 362.180,151.997 362.000,152.424 362.000 C 152.851 362.000,153.200 361.820,153.200 361.600 C 153.200 361.380,153.639 361.200,154.176 361.200 C 154.713 361.200,155.264 361.020,155.400 360.800 C 155.536 360.580,156.076 360.400,156.600 360.400 C 157.124 360.400,157.664 360.220,157.800 360.000 C 157.936 359.780,158.397 359.600,158.824 359.600 C 159.251 359.600,159.600 359.420,159.600 359.200 C 159.600 358.980,159.960 358.800,160.400 358.800 C 160.840 358.800,161.200 358.620,161.200 358.400 C 161.200 358.180,161.535 358.000,161.945 358.000 C 163.031 358.000,169.779 354.486,171.355 353.100 C 171.793 352.715,172.304 352.400,172.492 352.400 C 172.680 352.400,173.220 352.040,173.692 351.600 C 174.164 351.160,174.787 350.800,175.075 350.800 C 175.364 350.800,175.600 350.620,175.600 350.400 C 175.600 350.180,175.843 350.000,176.141 350.000 C 176.438 350.000,177.246 349.460,177.937 348.800 C 178.628 348.140,179.359 347.600,179.561 347.600 C 179.764 347.600,180.987 346.565,182.279 345.300 C 183.571 344.035,185.442 342.381,186.437 341.624 C 187.433 340.867,188.867 339.433,189.624 338.437 C 190.381 337.442,192.035 335.571,193.300 334.279 C 194.565 332.987,195.600 331.764,195.600 331.561 C 195.600 331.359,196.140 330.628,196.800 329.937 C 197.460 329.246,198.000 328.438,198.000 328.141 C 198.000 327.843,198.180 327.600,198.400 327.600 C 198.620 327.600,198.800 327.364,198.800 327.075 C 198.800 326.787,199.160 326.164,199.600 325.692 C 200.040 325.220,200.400 324.680,200.400 324.492 C 200.400 324.304,200.715 323.793,201.100 323.355 C 202.486 321.779,206.000 315.031,206.000 313.945 C 206.000 313.535,206.180 313.200,206.400 313.200 C 206.620 313.200,206.800 312.840,206.800 312.400 C 206.800 311.960,206.980 311.600,207.200 311.600 C 207.420 311.600,207.600 311.238,207.600 310.795 C 207.600 310.352,207.780 309.632,208.000 309.195 C 208.220 308.758,208.580 308.042,208.800 307.605 C 209.020 307.168,209.200 306.448,209.200 306.005 C 209.200 305.562,209.380 305.200,209.600 305.200 C 209.820 305.200,210.000 304.851,210.000 304.424 C 210.000 303.997,210.180 303.536,210.400 303.400 C 210.620 303.264,210.800 302.533,210.800 301.776 C 210.800 301.019,210.980 300.400,211.200 300.400 C 211.420 300.400,211.600 299.680,211.600 298.800 C 211.600 297.920,211.780 297.200,212.000 297.200 C 212.220 297.200,212.400 296.491,212.400 295.624 C 212.400 294.757,212.580 293.936,212.800 293.800 C 213.020 293.664,213.200 292.393,213.200 290.976 C 213.200 289.525,213.375 288.400,213.600 288.400 C 213.858 288.400,214.000 284.000,214.000 276.000 C 214.000 268.000,213.858 263.600,213.600 263.600 C 213.375 263.600,213.200 262.475,213.200 261.024 C 213.200 259.607,213.020 258.336,212.800 258.200 C 212.580 258.064,212.400 257.243,212.400 256.376 C 212.400 255.509,212.220 254.800,212.000 254.800 C 211.780 254.800,211.600 254.080,211.600 253.200 C 211.600 252.320,211.420 251.600,211.200 251.600 C 210.980 251.600,210.800 250.981,210.800 250.224 C 210.800 249.467,210.620 248.736,210.400 248.600 C 210.180 248.464,210.000 248.003,210.000 247.576 C 210.000 247.149,209.820 246.800,209.600 246.800 C 209.380 246.800,209.200 246.438,209.200 245.995 C 209.200 245.552,209.020 244.832,208.800 244.395 C 208.580 243.958,208.220 243.242,208.000 242.805 C 207.780 242.368,207.600 241.648,207.600 241.205 C 207.600 240.762,207.420 240.400,207.200 240.400 C 206.980 240.400,206.800 240.040,206.800 239.600 C 206.800 239.160,206.620 238.800,206.400 238.800 C 206.180 238.800,206.000 238.465,206.000 238.055 C 206.000 236.969,202.486 230.221,201.100 228.645 C 200.715 228.207,200.400 227.696,200.400 227.508 C 200.400 227.320,200.040 226.780,199.600 226.308 C 199.160 225.836,198.800 225.213,198.800 224.925 C 198.800 224.636,198.620 224.400,198.400 224.400 C 198.180 224.400,198.000 224.157,198.000 223.859 C 198.000 223.562,197.460 222.754,196.800 222.063 C 196.140 221.372,195.600 220.641,195.600 220.439 C 195.600 220.236,194.565 219.013,193.300 217.721 C 192.035 216.429,190.381 214.558,189.624 213.563 C 188.867 212.567,187.433 211.133,186.437 210.376 C 185.442 209.619,183.571 207.965,182.279 206.700 C 180.987 205.435,179.764 204.400,179.561 204.400 C 179.359 204.400,178.628 203.860,177.937 203.200 C 177.246 202.540,176.438 202.000,176.141 202.000 C 175.843 202.000,175.600 201.820,175.600 201.600 C 175.600 201.380,175.364 201.200,175.075 201.200 C 174.787 201.200,174.164 200.840,173.692 200.400 C 173.220 199.960,172.622 199.600,172.364 199.600 C 172.105 199.600,171.601 199.285,171.243 198.900 C 170.497 198.098,169.746 197.646,165.645 195.527 C 164.019 194.687,162.354 194.000,161.945 194.000 C 161.535 194.000,161.200 193.820,161.200 193.600 C 161.200 193.380,160.840 193.200,160.400 193.200 C 159.960 193.200,159.600 193.020,159.600 192.800 C 159.600 192.580,159.251 192.400,158.824 192.400 C 158.397 192.400,157.936 192.220,157.800 192.000 C 157.664 191.780,157.124 191.600,156.600 191.600 C 156.076 191.600,155.536 191.420,155.400 191.200 C 155.264 190.980,154.713 190.800,154.176 190.800 C 153.639 190.800,153.200 190.620,153.200 190.400 C 153.200 190.180,152.761 190.000,152.224 190.000 C 151.687 190.000,151.136 189.820,151.000 189.600 C 150.864 189.380,150.223 189.200,149.576 189.200 C 148.929 189.200,148.400 189.020,148.400 188.800 C 148.400 188.580,147.680 188.400,146.800 188.400 C 145.920 188.400,145.200 188.220,145.200 188.000 C 145.200 187.780,144.401 187.600,143.424 187.600 C 142.447 187.600,141.536 187.420,141.400 187.200 C 141.264 186.980,140.724 186.800,140.200 186.800 C 139.676 186.800,139.136 186.620,139.000 186.400 C 138.703 185.920,109.313 185.883,108.400 186.361 M133.381 189.991 C 137.057 190.377,137.875 190.528,144.400 192.012 C 151.407 193.606,159.332 196.633,165.136 199.931 C 166.751 200.849,168.152 201.600,168.251 201.600 C 168.537 201.600,175.164 206.193,177.800 208.217 C 181.570 211.113,188.566 218.217,191.964 222.600 C 194.943 226.443,198.400 231.354,198.400 231.742 C 198.400 231.845,199.151 233.249,200.069 234.864 C 204.189 242.113,206.683 249.278,209.243 261.219 C 210.761 268.302,210.761 283.698,209.243 290.781 C 206.683 302.722,204.189 309.887,200.069 317.136 C 199.151 318.751,198.400 320.155,198.400 320.258 C 198.400 320.608,195.055 325.396,192.154 329.200 C 188.723 333.698,181.093 341.282,176.600 344.659 C 173.213 347.204,168.570 350.400,168.258 350.400 C 168.155 350.400,166.751 351.151,165.136 352.069 C 159.558 355.239,151.733 358.265,144.800 359.933 C 136.063 362.035,134.657 362.188,124.000 362.188 C 113.343 362.188,111.937 362.035,103.200 359.933 C 96.267 358.265,88.442 355.239,82.864 352.069 C 81.249 351.151,79.845 350.400,79.742 350.400 C 78.550 350.400,68.255 342.330,63.468 337.642 C 58.689 332.961,49.600 321.568,49.600 320.258 C 49.600 320.155,48.849 318.751,47.931 317.136 C 43.811 309.887,41.317 302.722,38.757 290.781 C 37.239 283.698,37.239 268.302,38.757 261.219 C 41.317 249.278,43.811 242.113,47.931 234.864 C 48.849 233.249,49.600 231.845,49.600 231.742 C 49.600 230.432,58.689 219.039,63.468 214.358 C 68.255 209.670,78.550 201.600,79.742 201.600 C 79.845 201.600,81.249 200.849,82.864 199.931 C 90.140 195.796,97.075 193.384,109.324 190.731 C 114.229 189.668,126.672 189.285,133.381 189.991 " stroke="none" fill="#000000" fill-rule="evenodd"></path><path id="path1" d="M265.000 34.000 L 262.600 34.266 265.000 34.303 C 266.320 34.324,268.210 34.197,269.200 34.020 L 271.000 33.700 269.200 33.717 C 268.210 33.727,266.320 33.854,265.000 34.000 M279.600 33.998 C 281.406 34.342,286.279 34.533,285.967 34.248 C 285.875 34.164,284.000 33.997,281.800 33.875 C 279.009 33.722,278.344 33.759,279.600 33.998 M259.800 34.800 L 259.000 35.144 259.800 35.144 C 260.240 35.144,260.960 34.989,261.400 34.800 L 262.200 34.456 261.400 34.456 C 260.960 34.456,260.240 34.611,259.800 34.800 M287.400 34.800 C 287.840 34.989,288.560 35.144,289.000 35.144 L 289.800 35.144 289.000 34.800 C 288.560 34.611,287.840 34.456,287.400 34.456 L 286.600 34.456 287.400 34.800 M255.400 35.600 L 254.600 35.944 255.400 35.966 C 255.840 35.978,256.470 35.813,256.800 35.600 C 257.595 35.086,256.596 35.086,255.400 35.600 M292.000 35.600 C 292.330 35.813,292.960 35.978,293.400 35.966 L 294.200 35.944 293.400 35.600 C 292.204 35.086,291.205 35.086,292.000 35.600 M252.200 36.400 L 251.400 36.744 252.200 36.766 C 252.640 36.778,253.270 36.613,253.600 36.400 C 254.395 35.886,253.396 35.886,252.200 36.400 M295.200 36.400 C 295.530 36.613,296.160 36.778,296.600 36.766 L 297.400 36.744 296.600 36.400 C 295.404 35.886,294.405 35.886,295.200 36.400 M249.200 37.200 C 248.405 37.714,249.404 37.714,250.600 37.200 L 251.400 36.856 250.600 36.834 C 250.160 36.822,249.530 36.987,249.200 37.200 M298.200 37.200 C 299.396 37.714,300.395 37.714,299.600 37.200 C 299.270 36.987,298.640 36.822,298.200 36.834 L 297.400 36.856 298.200 37.200 M246.800 38.000 C 246.267 38.345,246.267 38.388,246.800 38.388 C 247.130 38.388,247.670 38.213,248.000 38.000 C 248.533 37.655,248.533 37.612,248.000 37.612 C 247.670 37.612,247.130 37.787,246.800 38.000 M300.800 38.000 C 301.130 38.213,301.670 38.388,302.000 38.388 C 302.533 38.388,302.533 38.345,302.000 38.000 C 301.670 37.787,301.130 37.612,300.800 37.612 C 300.267 37.612,300.267 37.655,300.800 38.000 M240.200 40.525 C 236.015 42.343,232.902 44.000,233.670 44.000 C 233.807 44.000,234.882 43.495,236.059 42.878 C 237.237 42.261,239.910 41.075,242.000 40.241 C 244.090 39.408,245.875 38.653,245.967 38.563 C 246.576 37.967,244.325 38.732,240.200 40.525 M304.200 39.200 C 305.080 39.607,306.070 39.941,306.400 39.941 C 306.730 39.941,306.280 39.607,305.400 39.200 C 304.520 38.793,303.530 38.459,303.200 38.459 C 302.870 38.459,303.320 38.793,304.200 39.200 M307.400 40.400 C 307.536 40.620,307.862 40.805,308.124 40.810 C 308.386 40.816,310.029 41.531,311.776 42.401 C 313.523 43.270,315.026 43.907,315.117 43.817 C 315.280 43.653,307.905 40.000,307.412 40.000 C 307.269 40.000,307.264 40.180,307.400 40.400 M230.840 45.235 C 219.168 51.771,205.306 65.713,199.597 76.659 C 198.200 79.338,198.390 79.084,202.128 73.294 C 207.041 65.684,212.584 59.428,219.400 53.802 C 222.777 51.015,225.037 49.434,232.660 44.524 C 234.089 43.603,232.978 44.038,230.840 45.235 M316.140 44.488 C 316.547 44.770,318.781 46.228,321.106 47.728 C 331.480 54.425,339.966 62.907,346.650 73.260 C 350.412 79.088,350.602 79.340,349.203 76.659 C 343.364 65.464,328.896 51.007,317.689 45.169 C 316.430 44.513,315.733 44.206,316.140 44.488 M267.400 54.757 C 266.520 54.891,269.670 55.000,274.400 55.000 C 279.130 55.000,282.100 54.881,281.000 54.735 C 278.546 54.410,269.587 54.424,267.400 54.757 M262.600 55.600 L 261.400 55.905 262.600 55.913 C 263.260 55.917,264.250 55.776,264.800 55.600 L 265.800 55.280 264.800 55.287 C 264.250 55.291,263.260 55.432,262.600 55.600 M284.000 55.600 C 284.550 55.776,285.540 55.917,286.200 55.913 L 287.400 55.905 286.200 55.600 C 285.540 55.432,284.550 55.291,284.000 55.287 L 283.000 55.280 284.000 55.600 M258.400 56.400 C 257.608 56.654,257.567 56.720,258.200 56.720 C 258.640 56.720,259.450 56.576,260.000 56.400 C 260.792 56.146,260.833 56.080,260.200 56.080 C 259.760 56.080,258.950 56.224,258.400 56.400 M288.800 56.400 C 289.350 56.576,290.160 56.720,290.600 56.720 C 291.233 56.720,291.192 56.654,290.400 56.400 C 289.850 56.224,289.040 56.080,288.600 56.080 C 287.967 56.080,288.008 56.146,288.800 56.400 M255.200 57.218 C 254.762 57.515,254.924 57.552,255.800 57.356 C 257.271 57.027,257.590 56.798,256.567 56.806 C 256.145 56.809,255.530 56.995,255.200 57.218 M291.633 56.944 C 291.725 57.023,292.340 57.208,293.000 57.356 C 293.876 57.552,294.038 57.515,293.600 57.218 C 293.060 56.853,291.232 56.598,291.633 56.944 M252.800 58.000 C 252.267 58.345,252.267 58.388,252.800 58.388 C 253.130 58.388,253.670 58.213,254.000 58.000 C 254.533 57.655,254.533 57.612,254.000 57.612 C 253.670 57.612,253.130 57.787,252.800 58.000 M294.800 58.000 C 295.130 58.213,295.670 58.388,296.000 58.388 C 296.533 58.388,296.533 58.345,296.000 58.000 C 295.670 57.787,295.130 57.612,294.800 57.612 C 294.267 57.612,294.267 57.655,294.800 58.000 M247.600 60.000 C 245.819 60.975,246.494 60.975,248.600 60.000 C 249.480 59.593,249.930 59.254,249.600 59.246 C 249.270 59.239,248.370 59.578,247.600 60.000 M300.200 60.000 C 302.306 60.975,302.981 60.975,301.200 60.000 C 300.430 59.578,299.530 59.239,299.200 59.246 C 298.870 59.254,299.320 59.593,300.200 60.000 M243.400 62.034 C 242.300 62.665,241.541 63.186,241.713 63.191 C 242.150 63.204,246.000 61.230,246.000 60.993 C 246.000 60.642,245.422 60.873,243.400 62.034 M302.800 60.998 C 302.800 61.267,306.849 63.284,307.029 63.105 C 307.111 63.023,306.193 62.473,304.989 61.882 C 303.785 61.292,302.800 60.894,302.800 60.998 M236.300 66.214 C 235.255 66.980,234.400 67.711,234.400 67.838 C 234.400 68.015,236.590 66.554,238.767 64.925 C 238.858 64.856,238.768 64.804,238.567 64.810 C 238.365 64.815,237.345 65.447,236.300 66.214 M310.033 64.925 C 312.461 66.742,314.495 68.077,314.261 67.699 C 313.916 67.140,310.606 64.800,310.161 64.800 C 309.999 64.800,309.942 64.856,310.033 64.925 M233.176 68.513 C 230.883 70.303,230.297 70.830,230.439 70.973 C 230.528 71.062,231.411 70.434,232.400 69.579 C 234.065 68.141,234.607 67.395,233.176 68.513 M316.400 69.530 C 317.389 70.412,318.276 71.057,318.370 70.963 C 318.550 70.784,317.810 70.149,315.800 68.756 C 315.140 68.299,315.410 68.647,316.400 69.530 M226.800 74.200 C 225.161 75.850,223.910 77.200,224.020 77.200 C 224.130 77.200,225.561 75.850,227.200 74.200 C 228.839 72.550,230.090 71.200,229.980 71.200 C 229.870 71.200,228.439 72.550,226.800 74.200 M318.800 71.310 C 318.800 71.371,320.195 72.766,321.900 74.410 L 325.000 77.400 322.010 74.300 C 319.233 71.421,318.800 71.017,318.800 71.310 M220.935 80.952 C 218.546 84.185,215.717 88.800,216.124 88.800 C 216.234 88.800,216.871 87.831,217.539 86.646 C 218.208 85.461,219.924 82.941,221.354 81.046 C 222.783 79.151,223.829 77.604,223.677 77.608 C 223.524 77.613,222.291 79.117,220.935 80.952 M327.323 80.902 C 328.686 82.717,330.120 84.652,330.511 85.202 L 331.221 86.200 330.711 85.160 C 330.028 83.769,325.473 77.610,325.123 77.604 C 324.971 77.602,325.961 79.086,327.323 80.902 M196.193 82.993 C 195.170 85.124,194.438 86.971,194.565 87.098 C 194.692 87.226,194.981 86.801,195.206 86.155 C 195.431 85.509,196.240 83.738,197.004 82.220 C 197.768 80.702,198.316 79.383,198.223 79.289 C 198.129 79.196,197.216 80.862,196.193 82.993 M350.403 79.259 C 350.401 79.402,350.906 80.482,351.525 81.659 C 352.144 82.837,353.352 85.575,354.210 87.745 C 355.068 89.914,355.828 91.515,355.899 91.303 C 356.066 90.803,352.243 81.768,351.202 80.200 C 350.764 79.540,350.404 79.117,350.403 79.259 M331.800 87.600 C 332.141 88.260,332.511 88.800,332.621 88.800 C 332.731 88.800,332.541 88.260,332.200 87.600 C 331.859 86.940,331.489 86.400,331.379 86.400 C 331.269 86.400,331.459 86.940,331.800 87.600 M193.415 89.415 C 193.030 90.424,192.798 91.332,192.900 91.433 C 193.001 91.535,193.400 90.793,193.785 89.785 C 194.170 88.776,194.402 87.868,194.300 87.767 C 194.199 87.665,193.800 88.407,193.415 89.415 M214.580 91.240 C 214.011 92.362,213.613 93.347,213.695 93.429 C 213.777 93.511,214.327 92.593,214.918 91.389 C 215.508 90.185,215.906 89.200,215.802 89.200 C 215.698 89.200,215.148 90.118,214.580 91.240 M333.882 91.389 C 334.473 92.593,335.023 93.511,335.105 93.429 C 335.284 93.249,333.267 89.200,332.998 89.200 C 332.894 89.200,333.292 90.185,333.882 91.389 M192.200 92.800 C 192.050 93.273,192.017 93.750,192.127 93.860 C 192.237 93.970,192.450 93.673,192.600 93.200 C 192.750 92.727,192.783 92.250,192.673 92.140 C 192.563 92.030,192.350 92.327,192.200 92.800 M356.012 92.400 C 356.012 92.730,356.187 93.270,356.400 93.600 C 356.745 94.133,356.788 94.133,356.788 93.600 C 356.788 93.270,356.613 92.730,356.400 92.400 C 356.055 91.867,356.012 91.867,356.012 92.400 M191.473 94.953 C 191.323 95.345,191.211 95.966,191.225 96.333 C 191.242 96.775,191.381 96.674,191.637 96.034 C 191.849 95.503,191.961 94.882,191.885 94.654 C 191.809 94.427,191.624 94.561,191.473 94.953 M356.834 94.800 C 356.846 95.130,357.011 95.760,357.200 96.200 L 357.544 97.000 357.566 96.200 C 357.578 95.760,357.413 95.130,357.200 94.800 C 356.855 94.267,356.815 94.267,356.834 94.800 M190.629 98.229 C 190.481 98.815,190.451 99.384,190.561 99.494 C 190.671 99.604,190.881 99.215,191.029 98.629 C 191.176 98.042,191.206 97.473,191.096 97.363 C 190.986 97.253,190.776 97.642,190.629 98.229 M357.634 97.800 C 357.622 98.240,357.787 98.870,358.000 99.200 C 358.514 99.995,358.514 98.996,358.000 97.800 L 357.656 97.000 357.634 97.800 M189.829 101.429 C 189.681 102.015,189.651 102.584,189.761 102.694 C 189.871 102.804,190.081 102.415,190.229 101.829 C 190.376 101.242,190.406 100.673,190.296 100.563 C 190.186 100.453,189.976 100.842,189.829 101.429 M210.649 101.015 C 210.512 101.373,210.415 101.966,210.434 102.333 C 210.453 102.700,210.627 102.469,210.821 101.820 C 211.198 100.558,211.065 99.933,210.649 101.015 M337.844 101.400 C 338.173 102.871,338.402 103.190,338.394 102.167 C 338.391 101.745,338.205 101.130,337.982 100.800 C 337.685 100.362,337.648 100.524,337.844 101.400 M358.434 101.000 C 358.422 101.440,358.587 102.070,358.800 102.400 C 359.314 103.195,359.314 102.196,358.800 101.000 L 358.456 100.200 358.434 101.000 M209.856 104.084 C 209.721 104.588,209.627 105.360,209.646 105.800 C 209.665 106.240,209.845 105.898,210.046 105.040 C 210.436 103.378,210.270 102.540,209.856 104.084 M338.662 104.600 C 338.796 105.480,338.972 106.275,339.053 106.367 C 339.356 106.710,339.129 104.568,338.781 103.800 C 338.529 103.242,338.493 103.485,338.662 104.600 M189.000 106.000 C 188.848 106.691,188.814 107.347,188.924 107.457 C 189.034 107.567,189.248 107.091,189.400 106.400 C 189.552 105.709,189.586 105.053,189.476 104.943 C 189.366 104.833,189.152 105.309,189.000 106.000 M359.256 105.400 C 359.256 105.840,359.411 106.560,359.600 107.000 L 359.944 107.800 359.944 107.000 C 359.944 106.560,359.789 105.840,359.600 105.400 L 359.256 104.600 359.256 105.400 M209.018 108.618 C 208.865 109.639,208.822 110.555,208.922 110.655 C 209.022 110.755,209.229 110.002,209.382 108.982 C 209.535 107.961,209.578 107.045,209.478 106.945 C 209.378 106.845,209.171 107.598,209.018 108.618 M339.270 107.400 C 339.257 107.840,339.395 108.920,339.577 109.800 C 339.855 111.145,339.908 111.209,339.907 110.200 C 339.905 108.799,339.308 106.170,339.270 107.400 M188.264 112.140 C 188.089 114.306,188.031 116.165,188.136 116.269 C 188.409 116.542,188.902 110.828,188.728 109.400 C 188.648 108.740,188.439 109.973,188.264 112.140 M360.030 110.633 C 360.046 111.935,360.214 113.810,360.402 114.800 C 360.641 116.056,360.678 115.391,360.525 112.600 C 360.280 108.148,359.984 106.973,360.030 110.633 M208.254 113.056 C 207.930 115.425,207.977 123.250,208.330 125.600 C 208.478 126.590,208.600 123.755,208.600 119.300 C 208.600 110.307,208.609 110.469,208.254 113.056 M340.161 119.200 C 340.161 122.610,340.222 124.005,340.297 122.300 C 340.372 120.595,340.372 117.805,340.297 116.100 C 340.222 114.395,340.161 115.790,340.161 119.200 M188.275 127.400 C 188.397 129.600,188.564 131.475,188.648 131.567 C 188.933 131.879,188.742 127.006,188.398 125.200 C 188.159 123.944,188.122 124.609,188.275 127.400 M360.298 125.600 C 360.138 126.810,360.029 128.700,360.057 129.800 C 360.098 131.474,360.164 131.278,360.457 128.600 C 360.863 124.883,360.728 122.338,360.298 125.600 M339.433 129.233 C 339.283 130.366,339.241 131.374,339.339 131.472 C 339.437 131.571,339.645 130.728,339.800 129.600 C 339.955 128.472,339.998 127.464,339.894 127.361 C 339.791 127.258,339.584 128.100,339.433 129.233 M208.895 128.400 C 208.895 128.950,209.032 129.940,209.200 130.600 C 209.472 131.670,209.505 131.692,209.505 130.800 C 209.505 130.250,209.368 129.260,209.200 128.600 C 208.928 127.530,208.895 127.508,208.895 128.400 M209.628 132.833 C 209.644 133.365,209.819 134.160,210.019 134.600 C 210.271 135.158,210.307 134.915,210.138 133.800 C 209.855 131.943,209.587 131.436,209.628 132.833 M338.849 132.600 C 338.816 133.040,338.696 133.850,338.583 134.400 L 338.377 135.400 338.806 134.419 C 339.042 133.879,339.161 133.069,339.072 132.619 C 338.913 131.821,338.907 131.821,338.849 132.600 M188.856 133.000 C 188.856 133.440,189.011 134.160,189.200 134.600 L 189.544 135.400 189.544 134.600 C 189.544 134.160,189.389 133.440,189.200 133.000 L 188.856 132.200 188.856 133.000 M359.400 133.600 C 359.248 134.291,359.214 134.947,359.324 135.057 C 359.434 135.167,359.648 134.691,359.800 134.000 C 359.952 133.309,359.986 132.653,359.876 132.543 C 359.766 132.433,359.552 132.909,359.400 133.600 M210.406 136.233 C 210.409 136.655,210.595 137.270,210.818 137.600 C 211.115 138.038,211.152 137.876,210.956 137.000 C 210.627 135.529,210.398 135.210,210.406 136.233 M337.829 136.629 C 337.681 137.215,337.651 137.784,337.761 137.894 C 337.871 138.004,338.081 137.615,338.229 137.029 C 338.376 136.442,338.406 135.873,338.296 135.763 C 338.186 135.653,337.976 136.042,337.829 136.629 M189.634 137.600 C 189.646 137.930,189.811 138.560,190.000 139.000 L 190.344 139.800 190.366 139.000 C 190.378 138.560,190.213 137.930,190.000 137.600 C 189.655 137.067,189.615 137.067,189.634 137.600 M358.673 137.753 C 358.523 138.145,358.411 138.766,358.425 139.133 C 358.442 139.575,358.581 139.474,358.837 138.834 C 359.049 138.303,359.161 137.682,359.085 137.454 C 359.009 137.227,358.824 137.361,358.673 137.753 M190.434 140.800 C 190.446 141.130,190.611 141.760,190.800 142.200 L 191.144 143.000 191.166 142.200 C 191.178 141.760,191.013 141.130,190.800 140.800 C 190.455 140.267,190.415 140.267,190.434 140.800 M357.873 140.953 C 357.723 141.345,357.611 141.966,357.625 142.333 C 357.642 142.775,357.781 142.674,358.037 142.034 C 358.249 141.503,358.361 140.882,358.285 140.654 C 358.209 140.427,358.024 140.561,357.873 140.953 M191.234 143.800 C 191.222 144.240,191.387 144.870,191.600 145.200 C 192.114 145.995,192.114 144.996,191.600 143.800 L 191.256 143.000 191.234 143.800 M357.029 144.229 C 356.881 144.815,356.851 145.384,356.961 145.494 C 357.071 145.604,357.281 145.215,357.429 144.629 C 357.576 144.042,357.606 143.473,357.496 143.363 C 357.386 143.253,357.176 143.642,357.029 144.229 M213.600 144.947 C 213.600 145.380,215.588 149.200,215.813 149.200 C 215.923 149.200,215.539 148.255,214.959 147.100 C 213.843 144.879,213.600 144.494,213.600 144.947 M333.882 147.011 C 333.292 148.215,332.894 149.200,332.998 149.200 C 333.267 149.200,335.284 145.151,335.105 144.971 C 335.023 144.889,334.473 145.807,333.882 147.011 M192.012 146.400 C 192.012 146.730,192.187 147.270,192.400 147.600 C 192.745 148.133,192.788 148.133,192.788 147.600 C 192.788 147.270,192.613 146.730,192.400 146.400 C 192.055 145.867,192.012 145.867,192.012 146.400 M356.200 146.800 C 356.050 147.273,356.017 147.750,356.127 147.860 C 356.237 147.970,356.450 147.673,356.600 147.200 C 356.750 146.727,356.783 146.250,356.673 146.140 C 356.563 146.030,356.350 146.327,356.200 146.800 M192.859 148.800 C 192.859 149.130,193.193 150.120,193.600 151.000 C 194.007 151.880,194.341 152.330,194.341 152.000 C 194.341 151.670,194.007 150.680,193.600 149.800 C 193.193 148.920,192.859 148.470,192.859 148.800 M355.015 150.215 C 354.630 151.224,354.398 152.132,354.500 152.233 C 354.601 152.335,355.000 151.593,355.385 150.585 C 355.770 149.576,356.002 148.668,355.900 148.567 C 355.799 148.465,355.400 149.207,355.015 150.215 M217.197 151.856 C 218.640 154.413,223.257 160.780,223.677 160.792 C 223.829 160.796,222.783 159.249,221.354 157.354 C 219.924 155.459,218.208 152.939,217.539 151.754 C 216.871 150.569,216.234 149.600,216.124 149.600 C 216.014 149.600,216.497 150.615,217.197 151.856 M331.800 150.800 C 331.459 151.460,331.269 152.000,331.379 152.000 C 331.489 152.000,331.859 151.460,332.200 150.800 C 332.541 150.140,332.731 149.600,332.621 149.600 C 332.511 149.600,332.141 150.140,331.800 150.800 M329.795 154.100 C 329.184 155.035,327.776 156.970,326.666 158.400 C 325.556 159.830,324.970 160.739,325.363 160.419 C 326.186 159.749,330.063 154.635,330.759 153.300 C 331.526 151.828,330.988 152.275,329.795 154.100 M194.400 153.012 C 194.400 153.505,198.053 160.880,198.217 160.717 C 198.307 160.626,197.670 159.123,196.801 157.376 C 195.931 155.629,195.216 153.986,195.210 153.724 C 195.200 153.240,194.400 152.537,194.400 153.012 M353.594 153.845 C 353.369 154.491,352.560 156.262,351.796 157.780 C 351.032 159.298,350.484 160.617,350.577 160.711 C 350.671 160.804,351.584 159.138,352.607 157.007 C 353.630 154.876,354.362 153.029,354.235 152.902 C 354.108 152.774,353.819 153.199,353.594 153.845 M199.597 163.341 C 205.379 174.427,219.973 189.021,231.059 194.803 C 233.740 196.202,233.488 196.012,227.660 192.250 C 217.307 185.566,208.825 177.080,202.128 166.706 C 198.390 160.916,198.200 160.662,199.597 163.341 M224.000 161.310 C 224.000 161.371,225.395 162.766,227.100 164.410 L 230.200 167.400 227.210 164.300 C 224.433 161.421,224.000 161.017,224.000 161.310 M321.600 164.200 C 319.961 165.850,318.710 167.200,318.820 167.200 C 318.930 167.200,320.361 165.850,322.000 164.200 C 323.639 162.550,324.890 161.200,324.780 161.200 C 324.670 161.200,323.239 162.550,321.600 164.200 M348.972 163.100 C 342.198 174.760,332.505 184.912,321.140 192.250 C 315.312 196.012,315.060 196.202,317.741 194.803 C 328.773 189.049,342.865 175.005,349.212 163.441 C 350.707 160.717,350.515 160.445,348.972 163.100 M230.400 167.429 C 230.400 167.711,230.817 168.079,232.900 169.633 C 234.663 170.949,234.168 170.234,232.200 168.621 C 231.210 167.810,230.400 167.274,230.400 167.429 M316.400 168.875 L 314.600 170.485 316.400 169.165 C 317.390 168.439,318.275 167.790,318.367 167.723 C 318.458 167.655,318.458 167.525,318.366 167.433 C 318.274 167.341,317.389 167.990,316.400 168.875 M234.560 170.735 C 234.904 171.291,238.406 173.732,238.584 173.539 C 238.654 173.462,237.714 172.698,236.495 171.840 C 235.276 170.982,234.405 170.485,234.560 170.735 M312.038 172.018 C 310.849 172.888,310.007 173.600,310.166 173.600 C 310.566 173.600,313.903 171.281,314.203 170.795 C 314.574 170.195,314.375 170.307,312.038 172.018 M239.447 174.076 C 239.694 174.476,246.000 177.700,246.000 177.426 C 246.000 177.326,244.478 176.454,242.617 175.488 C 240.756 174.522,239.330 173.887,239.447 174.076 M306.333 175.351 C 302.154 177.598,301.843 178.072,305.870 176.057 C 307.668 175.158,309.254 174.237,309.393 174.011 C 309.533 173.785,309.592 173.623,309.524 173.651 C 309.456 173.679,308.020 174.444,306.333 175.351 M246.800 177.960 C 247.589 178.534,251.661 180.072,251.861 179.873 C 251.996 179.737,249.402 178.632,247.000 177.801 C 246.353 177.577,246.315 177.608,246.800 177.960 M300.200 178.400 C 299.320 178.807,298.870 179.146,299.200 179.154 C 299.530 179.161,300.430 178.822,301.200 178.400 C 302.981 177.425,302.306 177.425,300.200 178.400 M296.000 179.898 C 295.010 180.248,294.395 180.598,294.634 180.678 C 294.873 180.758,295.863 180.470,296.834 180.040 C 298.959 179.097,298.494 179.018,296.000 179.898 M252.800 180.400 C 253.130 180.613,253.670 180.788,254.000 180.788 C 254.533 180.788,254.533 180.745,254.000 180.400 C 253.670 180.187,253.130 180.012,252.800 180.012 C 252.267 180.012,252.267 180.055,252.800 180.400 M255.200 181.182 C 255.530 181.405,256.145 181.591,256.567 181.594 C 257.590 181.602,257.271 181.373,255.800 181.044 C 254.924 180.848,254.762 180.885,255.200 181.182 M292.200 181.200 C 291.696 181.417,291.622 181.544,292.000 181.544 C 292.330 181.544,292.960 181.389,293.400 181.200 C 293.904 180.983,293.978 180.856,293.600 180.856 C 293.270 180.856,292.640 181.011,292.200 181.200 M258.400 182.000 C 258.950 182.176,259.760 182.320,260.200 182.320 C 260.833 182.320,260.792 182.254,260.000 182.000 C 259.450 181.824,258.640 181.680,258.200 181.680 C 257.567 181.680,257.608 181.746,258.400 182.000 M288.800 182.000 C 288.008 182.254,287.967 182.320,288.600 182.320 C 289.040 182.320,289.850 182.176,290.400 182.000 C 291.192 181.746,291.233 181.680,290.600 181.680 C 290.160 181.680,289.350 181.824,288.800 182.000 M262.600 182.800 C 263.260 182.968,264.340 183.106,265.000 183.107 C 266.009 183.108,265.945 183.055,264.600 182.777 C 262.574 182.358,260.937 182.377,262.600 182.800 M284.000 182.800 C 282.650 183.084,282.643 183.095,283.800 183.100 C 284.460 183.103,285.540 182.968,286.200 182.800 C 287.860 182.378,286.007 182.378,284.000 182.800 M271.100 183.498 C 272.915 183.572,275.885 183.572,277.700 183.498 C 279.515 183.423,278.030 183.363,274.400 183.363 C 270.770 183.363,269.285 183.423,271.100 183.498 M114.600 190.000 L 112.200 190.266 114.600 190.303 C 115.920 190.324,117.810 190.197,118.800 190.020 L 120.600 189.700 118.800 189.717 C 117.810 189.727,115.920 189.854,114.600 190.000 M129.200 189.998 C 131.006 190.342,135.879 190.533,135.567 190.248 C 135.475 190.164,133.600 189.997,131.400 189.875 C 128.609 189.722,127.944 189.759,129.200 189.998 M109.400 190.800 L 108.600 191.144 109.400 191.144 C 109.840 191.144,110.560 190.989,111.000 190.800 L 111.800 190.456 111.000 190.456 C 110.560 190.456,109.840 190.611,109.400 190.800 M137.000 190.800 C 137.440 190.989,138.160 191.144,138.600 191.144 L 139.400 191.144 138.600 190.800 C 138.160 190.611,137.440 190.456,137.000 190.456 L 136.200 190.456 137.000 190.800 M105.000 191.600 L 104.200 191.944 105.000 191.966 C 105.440 191.978,106.070 191.813,106.400 191.600 C 107.195 191.086,106.196 191.086,105.000 191.600 M141.600 191.600 C 141.930 191.813,142.560 191.978,143.000 191.966 L 143.800 191.944 143.000 191.600 C 141.804 191.086,140.805 191.086,141.600 191.600 M101.800 192.400 L 101.000 192.744 101.800 192.766 C 102.240 192.778,102.870 192.613,103.200 192.400 C 103.995 191.886,102.996 191.886,101.800 192.400 M144.800 192.400 C 145.130 192.613,145.760 192.778,146.200 192.766 L 147.000 192.744 146.200 192.400 C 145.004 191.886,144.005 191.886,144.800 192.400 M98.800 193.200 C 98.005 193.714,99.004 193.714,100.200 193.200 L 101.000 192.856 100.200 192.834 C 99.760 192.822,99.130 192.987,98.800 193.200 M147.800 193.200 C 148.996 193.714,149.995 193.714,149.200 193.200 C 148.870 192.987,148.240 192.822,147.800 192.834 L 147.000 192.856 147.800 193.200 M96.400 194.000 C 95.867 194.345,95.867 194.388,96.400 194.388 C 96.730 194.388,97.270 194.213,97.600 194.000 C 98.133 193.655,98.133 193.612,97.600 193.612 C 97.270 193.612,96.730 193.787,96.400 194.000 M150.400 194.000 C 150.730 194.213,151.270 194.388,151.600 194.388 C 152.133 194.388,152.133 194.345,151.600 194.000 C 151.270 193.787,150.730 193.612,150.400 193.612 C 149.867 193.612,149.867 193.655,150.400 194.000 M89.800 196.525 C 85.615 198.343,82.502 200.000,83.270 200.000 C 83.407 200.000,84.482 199.495,85.659 198.878 C 86.837 198.261,89.510 197.075,91.600 196.241 C 93.690 195.408,95.475 194.653,95.567 194.563 C 96.176 193.967,93.925 194.732,89.800 196.525 M153.800 195.200 C 154.680 195.607,155.670 195.941,156.000 195.941 C 156.330 195.941,155.880 195.607,155.000 195.200 C 154.120 194.793,153.130 194.459,152.800 194.459 C 152.470 194.459,152.920 194.793,153.800 195.200 M157.000 196.400 C 157.136 196.620,157.462 196.805,157.724 196.810 C 157.986 196.816,159.629 197.531,161.376 198.401 C 163.123 199.270,164.626 199.907,164.717 199.817 C 164.880 199.653,157.505 196.000,157.012 196.000 C 156.869 196.000,156.864 196.180,157.000 196.400 M234.600 196.802 C 236.168 197.843,245.203 201.666,245.703 201.499 C 245.915 201.428,244.314 200.668,242.145 199.810 C 239.975 198.952,237.237 197.744,236.059 197.125 C 233.565 195.814,232.885 195.664,234.600 196.802 M312.000 197.438 C 310.570 198.181,308.876 198.972,308.235 199.196 C 307.594 199.420,307.166 199.699,307.282 199.816 C 307.523 200.057,313.137 197.570,314.489 196.623 C 315.929 195.614,314.793 195.986,312.000 197.438 M80.440 201.235 C 68.768 207.771,54.906 221.713,49.197 232.659 C 47.800 235.338,47.990 235.084,51.728 229.294 C 56.641 221.684,62.184 215.428,69.000 209.802 C 72.377 207.015,74.637 205.434,82.260 200.524 C 83.689 199.603,82.578 200.038,80.440 201.235 M165.740 200.488 C 166.147 200.770,168.381 202.228,170.706 203.728 C 181.080 210.425,189.566 218.907,196.250 229.260 C 200.012 235.088,200.202 235.340,198.803 232.659 C 192.964 221.464,178.496 207.007,167.289 201.169 C 166.030 200.513,165.333 200.206,165.740 200.488 M304.200 200.800 C 303.320 201.207,302.870 201.541,303.200 201.541 C 303.530 201.541,304.520 201.207,305.400 200.800 C 306.280 200.393,306.730 200.059,306.400 200.059 C 306.070 200.059,305.080 200.393,304.200 200.800 M246.800 202.000 C 247.130 202.213,247.670 202.388,248.000 202.388 C 248.533 202.388,248.533 202.345,248.000 202.000 C 247.670 201.787,247.130 201.612,246.800 201.612 C 246.267 201.612,246.267 201.655,246.800 202.000 M300.800 202.000 C 300.267 202.345,300.267 202.388,300.800 202.388 C 301.130 202.388,301.670 202.213,302.000 202.000 C 302.533 201.655,302.533 201.612,302.000 201.612 C 301.670 201.612,301.130 201.787,300.800 202.000 M249.200 202.800 C 249.530 203.013,250.160 203.178,250.600 203.166 L 251.400 203.144 250.600 202.800 C 249.404 202.286,248.405 202.286,249.200 202.800 M298.200 202.800 L 297.400 203.144 298.200 203.166 C 298.640 203.178,299.270 203.013,299.600 202.800 C 300.395 202.286,299.396 202.286,298.200 202.800 M252.200 203.600 C 253.396 204.114,254.395 204.114,253.600 203.600 C 253.270 203.387,252.640 203.222,252.200 203.234 L 251.400 203.256 252.200 203.600 M295.200 203.600 C 294.405 204.114,295.404 204.114,296.600 203.600 L 297.400 203.256 296.600 203.234 C 296.160 203.222,295.530 203.387,295.200 203.600 M255.400 204.400 C 256.596 204.914,257.595 204.914,256.800 204.400 C 256.470 204.187,255.840 204.022,255.400 204.034 L 254.600 204.056 255.400 204.400 M292.000 204.400 C 291.205 204.914,292.204 204.914,293.400 204.400 L 294.200 204.056 293.400 204.034 C 292.960 204.022,292.330 204.187,292.000 204.400 M259.600 205.200 C 260.150 205.376,260.960 205.526,261.400 205.532 L 262.200 205.544 261.400 205.200 C 260.960 205.011,260.150 204.862,259.600 204.868 L 258.600 204.880 259.600 205.200 M287.400 205.200 L 286.600 205.544 287.400 205.532 C 287.840 205.526,288.650 205.376,289.200 205.200 L 290.200 204.880 289.200 204.868 C 288.650 204.862,287.840 205.011,287.400 205.200 M262.833 205.752 C 262.925 205.836,264.800 206.003,267.000 206.125 C 269.791 206.278,270.456 206.241,269.200 206.002 C 267.394 205.658,262.521 205.467,262.833 205.752 M279.400 206.022 C 278.458 206.204,279.445 206.243,281.800 206.118 C 284.000 206.000,285.875 205.836,285.967 205.752 C 286.257 205.487,281.068 205.700,279.400 206.022 M45.793 238.993 C 44.770 241.124,44.038 242.971,44.165 243.098 C 44.292 243.226,44.581 242.801,44.806 242.155 C 45.031 241.509,45.840 239.738,46.604 238.220 C 47.368 236.702,47.916 235.383,47.823 235.289 C 47.729 235.196,46.816 236.862,45.793 238.993 M200.003 235.259 C 200.001 235.402,200.506 236.482,201.125 237.659 C 201.744 238.837,202.952 241.575,203.810 243.745 C 204.668 245.914,205.428 247.515,205.499 247.303 C 205.666 246.803,201.843 237.768,200.802 236.200 C 200.364 235.540,200.004 235.117,200.003 235.259 M43.015 245.415 C 42.630 246.424,42.398 247.332,42.500 247.433 C 42.601 247.535,43.000 246.793,43.385 245.785 C 43.770 244.776,44.002 243.868,43.900 243.767 C 43.799 243.665,43.400 244.407,43.015 245.415 M41.800 248.800 C 41.650 249.273,41.617 249.750,41.727 249.860 C 41.837 249.970,42.050 249.673,42.200 249.200 C 42.350 248.727,42.383 248.250,42.273 248.140 C 42.163 248.030,41.950 248.327,41.800 248.800 M205.612 248.400 C 205.612 248.730,205.787 249.270,206.000 249.600 C 206.345 250.133,206.388 250.133,206.388 249.600 C 206.388 249.270,206.213 248.730,206.000 248.400 C 205.655 247.867,205.612 247.867,205.612 248.400 M41.073 250.953 C 40.923 251.345,40.811 251.966,40.825 252.333 C 40.842 252.775,40.981 252.674,41.237 252.034 C 41.449 251.503,41.561 250.882,41.485 250.654 C 41.409 250.427,41.224 250.561,41.073 250.953 M206.434 250.800 C 206.446 251.130,206.611 251.760,206.800 252.200 L 207.144 253.000 207.166 252.200 C 207.178 251.760,207.013 251.130,206.800 250.800 C 206.455 250.267,206.415 250.267,206.434 250.800 M40.229 254.229 C 40.081 254.815,40.051 255.384,40.161 255.494 C 40.271 255.604,40.481 255.215,40.629 254.629 C 40.776 254.042,40.806 253.473,40.696 253.363 C 40.586 253.253,40.376 253.642,40.229 254.229 M207.234 253.800 C 207.222 254.240,207.387 254.870,207.600 255.200 C 208.114 255.995,208.114 254.996,207.600 253.800 L 207.256 253.000 207.234 253.800 M39.429 257.429 C 39.281 258.015,39.251 258.584,39.361 258.694 C 39.471 258.804,39.681 258.415,39.829 257.829 C 39.976 257.242,40.006 256.673,39.896 256.563 C 39.786 256.453,39.576 256.842,39.429 257.429 M208.034 257.000 C 208.022 257.440,208.187 258.070,208.400 258.400 C 208.914 259.195,208.914 258.196,208.400 257.000 L 208.056 256.200 208.034 257.000 M38.600 262.000 C 38.448 262.691,38.414 263.347,38.524 263.457 C 38.634 263.567,38.848 263.091,39.000 262.400 C 39.152 261.709,39.186 261.053,39.076 260.943 C 38.966 260.833,38.752 261.309,38.600 262.000 M208.856 261.400 C 208.856 261.840,209.011 262.560,209.200 263.000 L 209.544 263.800 209.544 263.000 C 209.544 262.560,209.389 261.840,209.200 261.400 L 208.856 260.600 208.856 261.400 M37.864 268.140 C 37.689 270.306,37.631 272.165,37.736 272.269 C 38.009 272.542,38.502 266.828,38.328 265.400 C 38.248 264.740,38.039 265.973,37.864 268.140 M209.630 266.633 C 209.646 267.935,209.814 269.810,210.002 270.800 C 210.241 272.056,210.278 271.391,210.125 268.600 C 209.880 264.148,209.584 262.973,209.630 266.633 M37.875 283.400 C 37.997 285.600,38.164 287.475,38.248 287.567 C 38.533 287.879,38.342 283.006,37.998 281.200 C 37.759 279.944,37.722 280.609,37.875 283.400 M209.898 281.600 C 209.738 282.810,209.629 284.700,209.657 285.800 C 209.698 287.474,209.764 287.278,210.057 284.600 C 210.463 280.883,210.328 278.338,209.898 281.600 M38.456 289.000 C 38.456 289.440,38.611 290.160,38.800 290.600 L 39.144 291.400 39.144 290.600 C 39.144 290.160,38.989 289.440,38.800 289.000 L 38.456 288.200 38.456 289.000 M209.000 289.600 C 208.848 290.291,208.814 290.947,208.924 291.057 C 209.034 291.167,209.248 290.691,209.400 290.000 C 209.552 289.309,209.586 288.653,209.476 288.543 C 209.366 288.433,209.152 288.909,209.000 289.600 M39.234 293.600 C 39.246 293.930,39.411 294.560,39.600 295.000 L 39.944 295.800 39.966 295.000 C 39.978 294.560,39.813 293.930,39.600 293.600 C 39.255 293.067,39.215 293.067,39.234 293.600 M208.273 293.753 C 208.123 294.145,208.011 294.766,208.025 295.133 C 208.042 295.575,208.181 295.474,208.437 294.834 C 208.649 294.303,208.761 293.682,208.685 293.454 C 208.609 293.227,208.424 293.361,208.273 293.753 M40.034 296.800 C 40.046 297.130,40.211 297.760,40.400 298.200 L 40.744 299.000 40.766 298.200 C 40.778 297.760,40.613 297.130,40.400 296.800 C 40.055 296.267,40.015 296.267,40.034 296.800 M207.473 296.953 C 207.323 297.345,207.211 297.966,207.225 298.333 C 207.242 298.775,207.381 298.674,207.637 298.034 C 207.849 297.503,207.961 296.882,207.885 296.654 C 207.809 296.427,207.624 296.561,207.473 296.953 M40.834 299.800 C 40.822 300.240,40.987 300.870,41.200 301.200 C 41.714 301.995,41.714 300.996,41.200 299.800 L 40.856 299.000 40.834 299.800 M206.629 300.229 C 206.481 300.815,206.451 301.384,206.561 301.494 C 206.671 301.604,206.881 301.215,207.029 300.629 C 207.176 300.042,207.206 299.473,207.096 299.363 C 206.986 299.253,206.776 299.642,206.629 300.229 M41.612 302.400 C 41.612 302.730,41.787 303.270,42.000 303.600 C 42.345 304.133,42.388 304.133,42.388 303.600 C 42.388 303.270,42.213 302.730,42.000 302.400 C 41.655 301.867,41.612 301.867,41.612 302.400 M205.800 302.800 C 205.650 303.273,205.617 303.750,205.727 303.860 C 205.837 303.970,206.050 303.673,206.200 303.200 C 206.350 302.727,206.383 302.250,206.273 302.140 C 206.163 302.030,205.950 302.327,205.800 302.800 M42.459 304.800 C 42.459 305.130,42.793 306.120,43.200 307.000 C 43.607 307.880,43.941 308.330,43.941 308.000 C 43.941 307.670,43.607 306.680,43.200 305.800 C 42.793 304.920,42.459 304.470,42.459 304.800 M204.615 306.215 C 204.230 307.224,203.998 308.132,204.100 308.233 C 204.201 308.335,204.600 307.593,204.985 306.585 C 205.370 305.576,205.602 304.668,205.500 304.567 C 205.399 304.465,205.000 305.207,204.615 306.215 M44.000 309.012 C 44.000 309.505,47.653 316.880,47.817 316.717 C 47.907 316.626,47.270 315.123,46.401 313.376 C 45.531 311.629,44.816 309.986,44.810 309.724 C 44.800 309.240,44.000 308.537,44.000 309.012 M203.194 309.845 C 202.969 310.491,202.160 312.262,201.396 313.780 C 200.632 315.298,200.084 316.617,200.177 316.711 C 200.271 316.804,201.184 315.138,202.207 313.007 C 203.230 310.876,203.962 309.029,203.835 308.902 C 203.708 308.774,203.419 309.199,203.194 309.845 M49.197 319.341 C 54.979 330.427,69.573 345.021,80.659 350.803 C 83.340 352.202,83.088 352.012,77.260 348.250 C 66.907 341.566,58.425 333.080,51.728 322.706 C 47.990 316.916,47.800 316.662,49.197 319.341 M198.572 319.100 C 191.798 330.760,182.105 340.912,170.740 348.250 C 164.912 352.012,164.660 352.202,167.341 350.803 C 178.373 345.049,192.465 331.005,198.812 319.441 C 200.307 316.717,200.115 316.445,198.572 319.100 M84.200 352.802 C 85.768 353.843,94.803 357.666,95.303 357.499 C 95.515 357.428,93.914 356.668,91.745 355.810 C 89.575 354.952,86.837 353.744,85.659 353.125 C 83.165 351.814,82.485 351.664,84.200 352.802 M161.600 353.438 C 160.170 354.181,158.476 354.972,157.835 355.196 C 157.194 355.420,156.766 355.699,156.882 355.816 C 157.123 356.057,162.737 353.570,164.089 352.623 C 165.529 351.614,164.393 351.986,161.600 353.438 M153.800 356.800 C 152.920 357.207,152.470 357.541,152.800 357.541 C 153.130 357.541,154.120 357.207,155.000 356.800 C 155.880 356.393,156.330 356.059,156.000 356.059 C 155.670 356.059,154.680 356.393,153.800 356.800 M96.400 358.000 C 96.730 358.213,97.270 358.388,97.600 358.388 C 98.133 358.388,98.133 358.345,97.600 358.000 C 97.270 357.787,96.730 357.612,96.400 357.612 C 95.867 357.612,95.867 357.655,96.400 358.000 M150.400 358.000 C 149.867 358.345,149.867 358.388,150.400 358.388 C 150.730 358.388,151.270 358.213,151.600 358.000 C 152.133 357.655,152.133 357.612,151.600 357.612 C 151.270 357.612,150.730 357.787,150.400 358.000 M98.800 358.800 C 99.130 359.013,99.760 359.178,100.200 359.166 L 101.000 359.144 100.200 358.800 C 99.004 358.286,98.005 358.286,98.800 358.800 M147.800 358.800 L 147.000 359.144 147.800 359.166 C 148.240 359.178,148.870 359.013,149.200 358.800 C 149.995 358.286,148.996 358.286,147.800 358.800 M101.800 359.600 C 102.996 360.114,103.995 360.114,103.200 359.600 C 102.870 359.387,102.240 359.222,101.800 359.234 L 101.000 359.256 101.800 359.600 M144.800 359.600 C 144.005 360.114,145.004 360.114,146.200 359.600 L 147.000 359.256 146.200 359.234 C 145.760 359.222,145.130 359.387,144.800 359.600 M105.000 360.400 C 106.196 360.914,107.195 360.914,106.400 360.400 C 106.070 360.187,105.440 360.022,105.000 360.034 L 104.200 360.056 105.000 360.400 M141.600 360.400 C 140.805 360.914,141.804 360.914,143.000 360.400 L 143.800 360.056 143.000 360.034 C 142.560 360.022,141.930 360.187,141.600 360.400 M109.200 361.200 C 109.750 361.376,110.560 361.526,111.000 361.532 L 111.800 361.544 111.000 361.200 C 110.560 361.011,109.750 360.862,109.200 360.868 L 108.200 360.880 109.200 361.200 M137.000 361.200 L 136.200 361.544 137.000 361.532 C 137.440 361.526,138.250 361.376,138.800 361.200 L 139.800 360.880 138.800 360.868 C 138.250 360.862,137.440 361.011,137.000 361.200 M112.433 361.752 C 112.525 361.836,114.400 362.003,116.600 362.125 C 119.391 362.278,120.056 362.241,118.800 362.002 C 116.994 361.658,112.121 361.467,112.433 361.752 M129.000 362.022 C 128.058 362.204,129.045 362.243,131.400 362.118 C 133.600 362.000,135.475 361.836,135.567 361.752 C 135.857 361.487,130.668 361.700,129.000 362.022 " stroke="none" fill="#7e7e7e" fill-rule="evenodd"></path><path id="path2" d="M270.771 33.750 C 270.645 33.883,268.485 34.172,265.971 34.392 C 246.061 36.140,226.403 45.588,212.583 60.052 C 174.899 99.495,181.952 162.353,227.400 192.106 C 267.316 218.237,320.533 206.896,346.712 166.679 C 372.605 126.901,361.161 73.779,321.079 47.688 C 311.597 41.516,300.244 37.000,289.600 35.165 C 284.586 34.301,271.203 33.295,270.771 33.750 M283.400 34.790 C 317.986 38.175,347.795 63.364,357.019 97.000 C 367.222 134.205,351.460 173.845,318.672 193.436 C 271.384 221.690,210.677 199.264,192.982 147.004 C 176.687 98.878,207.299 45.962,257.200 35.994 C 258.410 35.752,260.168 35.385,261.106 35.177 C 262.044 34.970,263.934 34.790,265.306 34.777 C 266.678 34.764,268.520 34.594,269.400 34.399 C 271.151 34.011,277.145 34.178,283.400 34.790 M271.717 54.297 C 273.211 54.374,275.551 54.374,276.917 54.296 C 278.282 54.218,277.060 54.155,274.200 54.155 C 271.340 54.156,270.222 54.220,271.717 54.297 M261.200 55.267 C 247.038 58.270,232.099 66.700,224.399 76.033 C 223.415 77.225,222.510 78.290,222.387 78.400 C 221.840 78.888,218.449 83.584,217.333 85.400 C 212.483 93.288,208.782 103.714,208.219 111.073 C 208.042 113.399,208.149 113.093,208.948 109.000 C 211.801 94.386,217.080 84.122,226.774 74.339 C 230.263 70.819,236.920 65.406,238.397 64.889 C 238.729 64.773,239.270 64.455,239.600 64.181 C 239.930 63.908,242.000 62.781,244.200 61.677 C 247.816 59.862,249.497 59.171,254.600 57.401 C 256.152 56.863,262.321 55.572,266.800 54.849 L 269.000 54.494 267.000 54.478 C 265.900 54.469,263.290 54.824,261.200 55.267 M281.800 54.811 C 286.218 55.511,292.584 56.841,294.200 57.401 C 299.205 59.137,300.890 59.844,304.746 61.828 C 323.582 71.517,335.678 87.449,339.651 107.800 C 340.394 111.609,340.394 126.791,339.651 130.600 C 336.532 146.579,327.807 160.632,315.000 170.306 C 294.927 185.468,266.609 188.044,244.400 176.728 C 224.558 166.618,212.590 150.428,208.824 128.600 C 208.353 125.868,208.054 124.807,208.035 125.800 C 207.882 134.218,216.495 154.744,222.387 160.000 C 222.510 160.110,223.415 161.175,224.399 162.367 C 242.035 183.743,278.110 190.399,304.779 177.197 C 322.434 168.456,335.392 151.992,339.720 132.800 C 340.987 127.182,340.987 111.218,339.720 105.600 C 337.610 96.243,330.792 82.307,326.413 78.400 C 326.290 78.290,325.385 77.225,324.401 76.033 C 315.544 65.297,296.149 55.393,282.441 54.605 L 279.400 54.430 281.800 54.811 M120.371 189.750 C 120.245 189.883,118.085 190.172,115.571 190.392 C 95.661 192.140,76.003 201.588,62.183 216.052 C 24.499 255.495,31.552 318.353,77.000 348.106 C 116.916 374.237,170.133 362.896,196.312 322.679 C 222.205 282.901,210.761 229.779,170.679 203.688 C 161.197 197.516,149.844 193.000,139.200 191.165 C 134.186 190.301,120.803 189.295,120.371 189.750 M133.000 190.790 C 167.586 194.175,197.395 219.364,206.619 253.000 C 216.822 290.205,201.060 329.845,168.272 349.436 C 120.984 377.690,60.277 355.264,42.582 303.004 C 26.287 254.878,56.899 201.962,106.800 191.994 C 108.010 191.752,109.768 191.385,110.706 191.177 C 111.644 190.970,113.534 190.790,114.906 190.777 C 116.278 190.764,118.120 190.594,119.000 190.399 C 120.751 190.011,126.745 190.178,133.000 190.790 " stroke="none" fill="#bfbfbf" fill-rule="evenodd"></path><path id="path3" d="M269.400 34.399 C 268.520 34.594,266.678 34.764,265.306 34.777 C 263.934 34.790,262.044 34.970,261.106 35.177 C 260.168 35.385,258.410 35.752,257.200 35.994 C 204.863 46.448,175.000 102.321,195.017 152.335 C 212.507 196.033,262.501 217.087,306.735 199.383 C 350.431 181.894,371.487 131.897,353.783 87.665 C 343.057 60.867,317.933 40.472,289.600 35.563 C 283.594 34.523,271.886 33.848,269.400 34.399 M281.644 54.424 C 297.538 56.055,315.342 65.053,324.401 76.033 C 325.385 77.225,326.290 78.290,326.413 78.400 C 327.927 79.751,332.073 86.182,334.536 91.000 C 342.991 107.540,342.991 130.860,334.536 147.400 C 322.445 171.052,301.387 183.798,274.400 183.798 C 253.964 183.798,235.579 175.918,224.399 162.367 C 223.415 161.175,222.510 160.110,222.387 160.000 C 220.883 158.658,216.736 152.273,214.447 147.775 C 205.573 130.338,205.662 107.091,214.667 90.109 C 216.952 85.799,221.036 79.606,222.387 78.400 C 222.510 78.290,223.415 77.225,224.399 76.033 C 236.707 61.114,260.248 52.228,281.644 54.424 M119.000 190.399 C 118.120 190.594,116.278 190.764,114.906 190.777 C 113.534 190.790,111.644 190.970,110.706 191.177 C 109.768 191.385,108.010 191.752,106.800 191.994 C 54.463 202.448,24.600 258.321,44.617 308.335 C 62.107 352.033,112.101 373.087,156.335 355.383 C 200.031 337.894,221.087 287.897,203.383 243.665 C 192.657 216.867,167.533 196.472,139.200 191.563 C 133.194 190.523,121.486 189.848,119.000 190.399 " stroke="none" fill="#ffffff" fill-rule="evenodd"></path><path id="path4" d="M268.400 54.982 C 268.070 55.062,266.450 55.340,264.800 55.601 C 231.188 60.908,207.248 88.706,208.515 120.955 C 209.064 134.904,213.184 146.472,221.594 157.668 C 240.848 183.300,277.552 190.930,306.498 175.318 C 343.477 155.374,351.610 106.385,323.034 75.713 C 314.240 66.272,300.263 58.439,288.600 56.415 C 287.060 56.147,285.080 55.757,284.200 55.546 C 282.618 55.168,269.559 54.702,268.400 54.982 " stroke="none" fill="#c10f0f" fill-rule="evenodd"></path></g></svg>